# xmcd CD database file
#
# Track frame offsets:
#	150
#	17316
#	34899
#	52196
#	62099
#	83154
#	95208
#	115490
#	128355
#	143218
#	155934
#	174446
#
# Disc length: 2557 seconds
#
# Revision: 0
# Processed by: cddbd v1.5.2PL0 Copyright (c) Steve Scherf et al.
# Submitted via: CDex 1.51
#
DISCID=a409fb0c
DTITLE=Nancy Muller - Georgia Rain
DYEAR=2007
DGENRE=Country
TTITLE0=Nancy Muller =He Thinks He'll Keep Her
TTITLE1=Nancy Muller =Help Pour Out The Rainaudiotrack 02
TTITLE2=Nancy Muller =Suds In The Bucket
TTITLE3=Nancy Muller =Heartbeat
TTITLE4=Nancy Muller =Everything That Glitters
TTITLE5=Nancy Muller =Strong Enough To Bend
TTITLE6=Nancy Muller =Georgia Rain
TTITLE7=Nancy Muller =Blue
TTITLE8=Nancy Muller =The Greatest Man I Ever Knew
TTITLE9=Nancy Muller =Love Letters Straight From Your Heart
TTITLE10=Nancy Muller =Two Sparrows In A Hurricane
TTITLE11=Nancy Muller =Driftaway
EXTD=YEAR: 2007
EXTT0=
EXTT1=
EXTT2=
EXTT3=
EXTT4=
EXTT5=
EXTT6=
EXTT7=
EXTT8=
EXTT9=
EXTT10=
EXTT11=
PLAYORDER=
